<svg version="1" xmlns="http://www.w3.org/2000/svg" width="862.586" height="147.598" viewBox="0 0 862.586 147.598"><path fill="#7D868C" d="M32 4.8v139.998H0V4.8h32zM50.594 134.392h31.22v10.406h-31.22z"/><path fill="#F8283B" d="M102.625 40.735c-28.722 0-52.03 23.254-52.03 52.03v31.22h31.218V92.767c0-11.49 9.323-20.813 20.813-20.813 11.434 0 20.813 9.324 20.813 20.813v31.22h31.218v-31.22c-.002-28.778-23.312-52.032-52.033-52.032z"/><path fill="#7D868C" d="M123.438 134.392h31.22v10.406h-31.22zM249.196 114.798c0 23-20 32.8-41.6 32.8-20 0-35.2-7.6-43-23.8l26-14.8c2.6 7.6 8.2 11.8 17 11.8 7.2 0 10.8-2.2 10.8-6.2 0-11-49.198-5.2-49.198-39.8 0-21.8 18.4-32.798 39.2-32.798 16.198 0 30.6 7.2 38.998 21.4l-25.6 13.8c-2.8-5.2-6.8-8.8-13.4-8.8-5.2 0-8.4 2-8.4 5.6 0 11.4 49.2 3.8 49.2 40.798zM299.196 73.6v35.398c0 8.6 7.4 9.4 20.6 8.6v27.2c-39.2 4-50.6-7.8-50.6-35.8V73.6h-16V44.8h16v-19l30-9v28h20.6v28.8h-20.6zM437.396 44.8v99.998h-30v-9.4c-6.6 7.6-16.4 12.2-29.8 12.2-26.2 0-47.8-23-47.8-52.8 0-29.8 21.6-52.798 47.8-52.798 13.4 0 23.2 4.6 29.8 12.2v-9.4h30zm-30 50c0-15-10-24.4-23.8-24.4s-23.8 9.4-23.8 24.4c0 15 10 24.398 23.8 24.398s23.8-9.4 23.8-24.4zM555.393 83.4v61.398h-30v-57c0-12.4-7.8-18.2-17.4-18.2-10.998 0-18.6 6.4-18.6 20.6v54.6h-29.998v-100h30v9.4c5.4-7.4 15.4-12.2 28.6-12.2 20.198.002 37.398 14.4 37.398 41.4zM613.992 73.6v35.398c0 8.6 7.4 9.4 20.6 8.6v27.2c-39.2 4-50.6-7.8-50.6-35.8V73.6h-16V44.8h16v-19l30-9v28h20.6v28.8h-20.6zM651.59 128.598c0-10.4 8.6-19 19-19 10.398 0 18.998 8.6 18.998 19s-8.6 19-18.998 19c-10.4 0-19-8.6-19-19zM706.59 18c0-9.8 8.2-18 18-18s17.998 8.2 17.998 18-8.2 18-17.998 18c-9.8 0-18-8.2-18-18zm3 26.8h29.998v99.998H709.59v-100zM756.588 94.8c0-29.8 23.6-52.8 53-52.8 29.398 0 52.998 23 52.998 52.8 0 29.798-23.6 52.798-52.998 52.798-29.4 0-53-23-53-52.8zm76 0c0-14.2-10-23.6-23-23.6s-23 9.398-23 23.6c0 14.2 10 23.6 23 23.6s23-9.4 23-23.6z"/></svg>